<svg width="30" height="36" viewBox="0 0 30 36" fill="none" xmlns="http://www.w3.org/2000/svg">
<path d="M14.0411 1.23913C14.3238 0.284261 15.6762 0.284262 15.9589 1.23913L19.193 12.1644C19.2747 12.4401 19.4711 12.6674 19.7321 12.7881L29.0378 17.0924C29.8114 17.4502 29.8114 18.5498 29.0378 18.9076L19.7321 23.2119C19.4711 23.3326 19.2747 23.5599 19.193 23.8356L15.9589 34.7609C15.6762 35.7157 14.3238 35.7157 14.0411 34.7609L10.807 23.8356C10.7253 23.5599 10.5289 23.3326 10.2679 23.2119L0.962227 18.9076C0.188639 18.5498 0.18864 17.4502 0.962229 17.0924L10.2679 12.7881C10.5289 12.6674 10.7253 12.4401 10.807 12.1644L14.0411 1.23913Z" fill="#F4B41A"/>
</svg>
