<svg xmlns="http://www.w3.org/2000/svg" data-name="Layer 1" width="24" height="24" viewBox="0 0 512 512" fill="#fff"><path d="M445.011,82.7H67.022a50.057,50.057,0,0,0-50,50V379.3a50.057,50.057,0,0,0,50,50H445.01a50.057,50.057,0,0,0,50-50V132.7A50.055,50.055,0,0,0,445.011,82.7Zm-88.9,173.232,118.9-93.318V371.352ZM67.022,102.7H445.01a30.034,30.034,0,0,1,30,30v4.49L282.6,288.208a39.972,39.972,0,0,1-49.246-.04L37.022,137.152V132.7A30.034,30.034,0,0,1,67.022,102.7Zm92.438,153.86L37.022,371.755V162.384ZM445.011,409.3H67.022a30.007,30.007,0,0,1-25.538-14.28l134.034-126.1L221.1,303.98a59.937,59.937,0,0,0,73.816-.019L340.235,268.4,470.6,394.94A30.011,30.011,0,0,1,445.011,409.3Z"/></svg>